<svg width="22" height="22" viewBox="0 0 22 22" fill="none" xmlns="http://www.w3.org/2000/svg">
<mask id="mask0_204_441" style="mask-type:luminance" maskUnits="userSpaceOnUse" x="8" y="17" width="5" height="2">
<path d="M8.97607 17.248H12.9654V18.8852H8.97607V17.248Z" fill="white"/>
</mask>
<g mask="url(#mask0_204_441)">
<path d="M10.9908 18.1729C10.4241 18.1729 9.91371 17.8369 9.68523 17.316L9.03394 17.6016C9.37516 18.3801 10.1422 18.8851 10.9908 18.8851C11.8518 18.8851 12.6218 18.3736 12.9568 17.5796L12.3025 17.3002C12.077 17.8308 11.5637 18.1729 10.9908 18.1729Z" fill="white"/>
</g>
<mask id="mask1_204_441" style="mask-type:luminance" maskUnits="userSpaceOnUse" x="3" y="3" width="16" height="14">
<path d="M3.87207 3.16803H18.1189V16.7787H3.87207V3.16803Z" fill="white"/>
</mask>
<g mask="url(#mask1_204_441)">
<path d="M17.979 15.7594L16.1006 14.19C16.0192 14.1211 15.9722 14.0239 15.9722 13.9171V9.61106C15.9722 8.23331 15.4243 6.94974 14.4286 5.9987C13.8433 5.43999 13.1482 5.04468 12.3968 4.82491C12.4123 4.71514 12.4185 4.60514 12.4091 4.48918C12.356 3.88029 11.9082 3.36237 11.3197 3.2306C10.8877 3.1332 10.4431 3.23381 10.1019 3.50674C9.76364 3.77991 9.56953 4.18462 9.56953 4.62095C9.56953 4.69314 9.58214 4.75914 9.59153 4.82812C7.51253 5.44939 6.00966 7.41426 6.00966 9.74283V13.9139C6.00966 14.0207 5.96291 14.1211 5.88132 14.1871L4.00285 15.7562C3.92149 15.8254 3.87451 15.9257 3.87451 16.0293V16.3871C3.87451 16.5848 4.03424 16.7448 4.23155 16.7448H17.7506C17.9476 16.7448 18.1074 16.5848 18.1074 16.3871V16.0293C18.1042 15.9257 18.0572 15.8254 17.979 15.7594ZM10.2772 4.62095C10.2772 4.40118 10.3741 4.20043 10.5433 4.06224C10.7154 3.92429 10.9315 3.87387 11.1599 3.92429C11.445 3.99006 11.6703 4.25062 11.6985 4.54876C11.7017 4.58956 11.6953 4.63035 11.6923 4.67114C11.3822 4.62714 11.0692 4.61156 10.7468 4.62416C10.5902 4.63035 10.4337 4.64616 10.2802 4.67114C10.2834 4.65235 10.2772 4.63654 10.2772 4.62095ZM4.78568 16.0325L6.3353 14.7361C6.57959 14.5322 6.72053 14.234 6.72053 13.9139V9.74283C6.72053 7.37966 8.50505 5.4432 10.7843 5.33641C11.9678 5.28004 13.0854 5.70056 13.937 6.51341C14.7886 7.32947 15.2584 8.42787 15.2584 9.61106V13.9139C15.2584 14.2311 15.3991 14.5322 15.6434 14.7361L17.1932 16.0325H4.78568Z" fill="white"/>
</g>
</svg>
