<svg width="22" height="22" viewBox="0 0 22 22" fill="none" xmlns="http://www.w3.org/2000/svg">
<path d="M11.5014 3.44507C6.93414 3.15289 3.15289 6.93391 3.44507 11.5014C3.68639 15.277 6.73591 18.3262 10.5112 18.5676C15.0785 18.8597 18.8597 15.0787 18.5676 10.5112C18.3262 6.73591 15.2767 3.68639 11.5014 3.44507ZM14.4371 14.7659C14.7352 13.7422 14.913 12.5645 14.9369 11.2977H17.9933C17.9261 12.922 17.3028 14.4041 16.3087 15.56C15.8526 15.2405 15.2151 14.9703 14.4371 14.7659ZM5.70397 15.56C4.70984 14.4041 4.08628 12.922 4.01936 11.2977H7.07576C7.09959 12.5645 7.27743 13.7422 7.57557 14.7659C6.79732 14.9703 6.15978 15.2405 5.70397 15.56ZM7.57397 7.25153C7.27674 8.2743 7.09936 9.45016 7.07553 10.7149H4.01936C4.08605 9.09839 4.70389 7.62255 5.68976 6.46893C6.15359 6.78335 6.79549 7.04964 7.57397 7.25153ZM10.7149 10.7149H7.65853C7.68351 9.50882 7.86295 8.37032 8.15605 7.3856C8.9437 7.54441 9.81728 7.63493 10.7149 7.6512V10.7149ZM10.7149 11.2977V14.3614C9.81522 14.3777 8.94186 14.4696 8.1572 14.6305C7.86341 13.6448 7.68374 12.5052 7.65853 11.2977H10.7149ZM11.2977 11.2977H14.3541C14.3289 12.5052 14.1492 13.6448 13.8557 14.6305C13.0703 14.4696 12.1969 14.3777 11.2977 14.3614V11.2977ZM11.2977 10.7149V7.65097C12.1953 7.63493 13.0689 7.54418 13.8566 7.38537C14.1497 8.37032 14.3289 9.50882 14.3541 10.7149H11.2977ZM11.2977 7.06843V4.04137C12.2549 4.22309 13.1113 5.2862 13.6728 6.82872C12.9404 6.97149 12.1305 7.05285 11.2977 7.06843ZM10.7149 4.04137V7.06843C9.88214 7.05285 9.07203 6.97149 8.33961 6.82872C8.9013 5.2862 9.7577 4.22287 10.7149 4.04137ZM10.7149 14.9444V17.9713C9.75816 17.7898 8.90245 16.728 8.34076 15.1873C9.07066 15.0423 9.88053 14.96 10.7149 14.9444ZM11.2977 17.971V14.9444C12.1319 14.96 12.9415 15.0423 13.6716 15.1873C13.1102 16.7278 12.2542 17.7898 11.2977 17.971ZM14.9369 10.7149C14.9133 9.45016 14.7359 8.2743 14.4387 7.25153C15.2171 7.04964 15.859 6.78335 16.3229 6.46893C17.3085 7.62232 17.9266 9.09839 17.993 10.7149H14.9369ZM15.92 6.03443C15.5118 6.29293 14.941 6.52095 14.2606 6.69535C13.8948 5.66135 13.3985 4.82007 12.8136 4.24991C14.003 4.56845 15.0684 5.19293 15.92 6.03443ZM7.75203 6.69557C7.07164 6.52095 6.50078 6.29293 6.09286 6.03443C6.94399 5.19293 8.00961 4.56868 9.19922 4.25014C8.61416 4.82007 8.11755 5.66157 7.75203 6.69557ZM6.10753 15.9924C6.50674 15.73 7.07324 15.4988 7.75386 15.3221C8.11916 16.3536 8.61507 17.1932 9.19922 17.7625C8.01626 17.4458 6.95637 16.8263 6.10753 15.9924ZM14.2588 15.3221C14.9392 15.4988 15.5057 15.73 15.9051 15.9924C15.056 16.8266 13.9964 17.446 12.8134 17.7625C13.3973 17.1932 13.8932 16.3536 14.2588 15.3221Z" fill="white"/>
</svg>
