<svg width="22" height="22" viewBox="0 0 22 22" fill="none" xmlns="http://www.w3.org/2000/svg">
<mask id="mask0_204_434" style="mask-type:luminance" maskUnits="userSpaceOnUse" x="3" y="3" width="16" height="16">
<path d="M3.07227 3.0722H18.9123V18.9122H3.07227V3.0722Z" fill="white"/>
</mask>
<g mask="url(#mask0_204_434)">
<path d="M18.4395 8.7631L16.8518 8.59489C16.8447 8.57793 16.8376 8.56098 16.8305 8.54402L17.8347 7.30239C18.0043 7.09248 17.9885 6.78768 17.7974 6.59702L15.3875 4.18687C15.1959 3.99506 14.8918 3.9797 14.6821 4.14975L13.4405 5.15373C13.4233 5.14639 13.4065 5.13975 13.3896 5.13264L13.2214 3.54452C13.193 3.2757 12.9665 3.0722 12.6964 3.0722H9.28795C9.01777 3.0722 8.79158 3.2757 8.76293 3.54452L8.59472 5.13264C8.57777 5.13929 8.56104 5.14639 8.54408 5.15373L7.30245 4.14975C7.09231 3.9797 6.7882 3.99506 6.59708 4.18687L4.18693 6.59702C3.99581 6.78768 3.97999 7.09248 4.14958 7.30239L5.15379 8.54402C5.14668 8.56098 5.13958 8.57793 5.1327 8.59489L3.54481 8.7631C3.27599 8.79152 3.07227 9.01771 3.07227 9.28789V12.6963C3.07227 12.9665 3.27599 13.1929 3.54481 13.2211L5.1327 13.3893C5.13958 13.4062 5.14668 13.4232 5.15379 13.4404L4.14958 14.682C3.97999 14.8917 3.99581 15.1965 4.18693 15.3874L6.59708 17.7973C6.7882 17.9887 7.09231 18.004 7.30245 17.8344L8.54408 16.8305C8.56104 16.8378 8.57777 16.8449 8.59472 16.8518L8.76293 18.4399C8.79158 18.7085 9.01777 18.9122 9.28795 18.9122H12.6964C12.9665 18.9122 13.193 18.7085 13.2214 18.4399L13.3896 16.8518C13.4065 16.8444 13.4233 16.8378 13.4405 16.8305L14.6821 17.8344C14.8918 18.004 15.1959 17.9887 15.3875 17.7973L17.7974 15.3874C17.9885 15.1965 18.0043 14.8917 17.8347 14.682L16.8305 13.4404C16.8376 13.4232 16.8447 13.4062 16.8518 13.3893L18.4395 13.2211C18.7083 13.1929 18.9123 12.9665 18.9123 12.6963V9.28789C18.9123 9.01771 18.7083 8.79152 18.4395 8.7631ZM17.8563 12.2215L16.418 12.3734C16.2147 12.3947 16.0422 12.5317 15.9748 12.7247C15.9088 12.9145 15.8297 13.1042 15.7404 13.2887C15.651 13.4727 15.6764 13.692 15.8048 13.8513L16.7148 14.9763L14.9766 16.7145L13.8513 15.8049C13.6921 15.6755 13.4728 15.6514 13.289 15.7405C13.1015 15.8313 12.912 15.9097 12.7259 15.9741C12.5325 16.0412 12.3952 16.2138 12.3735 16.4175L12.2211 17.8562H9.76325L9.61085 16.4175C9.58908 16.2138 9.45181 16.0412 9.25839 15.9741C9.07116 15.9097 8.88187 15.8308 8.69556 15.7405C8.51177 15.6514 8.29268 15.6755 8.13295 15.8049L7.00775 16.7145L5.26952 14.9763L6.17954 13.8513C6.30787 13.692 6.33331 13.4727 6.24393 13.2887C6.15456 13.1042 6.0755 12.9145 6.0095 12.7247C5.94212 12.5317 5.76956 12.3947 5.56629 12.3734L4.12827 12.2215V9.76296L5.56629 9.61079C5.76956 9.58971 5.94212 9.45243 6.0095 9.25971C6.0755 9.06996 6.15456 8.88021 6.24393 8.6955C6.33331 8.51148 6.30787 8.29239 6.17954 8.13289L5.26952 7.00791L7.00775 5.26968L8.13295 6.17925C8.29268 6.30873 8.51177 6.33348 8.69556 6.24364C8.88187 6.15358 9.07116 6.07452 9.25839 6.01012C9.45181 5.9432 9.58908 5.77041 9.61085 5.56668L9.76325 4.1282H12.2211L12.3735 5.56668C12.3952 5.77041 12.5325 5.9432 12.7259 6.01012C12.912 6.07452 13.1015 6.15289 13.289 6.24364C13.4728 6.33348 13.6921 6.30873 13.8513 6.17925L14.9766 5.26968L16.7148 7.00791L15.8048 8.13289C15.6764 8.29239 15.651 8.51148 15.7404 8.6955C15.8297 8.88021 15.9088 9.06996 15.9748 9.25971C16.0422 9.45243 16.2147 9.58971 16.418 9.61079L17.8563 9.76296V12.2215Z" fill="white"/>
</g>
<path d="M10.9923 6.67834C8.61357 6.67834 6.67871 8.61343 6.67871 10.9922C6.67871 13.3707 8.61357 15.3058 10.9923 15.3058C13.3708 15.3058 15.3057 13.3707 15.3057 10.9922C15.3057 8.61343 13.3708 6.67834 10.9923 6.67834ZM10.9923 14.2498C9.19611 14.2498 7.73471 12.7886 7.73471 10.9922C7.73471 9.19574 9.19611 7.73434 10.9923 7.73434C12.7883 7.73434 14.2497 9.19574 14.2497 10.9922C14.2497 12.7886 12.7883 14.2498 10.9923 14.2498Z" fill="white"/>
</svg>
