<svg width="19" height="18" viewBox="0 0 19 18" fill="none" xmlns="http://www.w3.org/2000/svg">
<g clip-path="url(#clip0_204_417)">
<mask id="mask0_204_417" style="mask-type:luminance" maskUnits="userSpaceOnUse" x="1" y="2" width="17" height="4">
<path d="M1.29712 2.79956H17.4439V5.184H1.29712V2.79956Z" fill="white"/>
</mask>
<g mask="url(#mask0_204_417)">
<path d="M15.7559 2.81024H2.81425C2.677 2.81062 2.54088 2.82355 2.40606 2.84905C2.27106 2.87455 2.13981 2.91224 2.01175 2.96174C1.88388 3.01143 1.76163 3.07237 1.645 3.14455C1.52819 3.21674 1.41925 3.29905 1.31763 3.3913C1.36844 3.39693 1.41888 3.40499 1.46894 3.4153C1.519 3.42562 1.56869 3.43818 1.61763 3.45299C1.66656 3.46762 1.71456 3.48468 1.762 3.5038C1.80944 3.52312 1.85575 3.5443 1.90131 3.56774C1.94669 3.59118 1.99094 3.61649 2.03406 3.64387C2.07719 3.67124 2.119 3.70068 2.1595 3.7318C2.2 3.76312 2.239 3.79612 2.27631 3.8308C2.31381 3.86549 2.34963 3.90205 2.38375 3.93993C2.41788 3.97799 2.45031 4.01755 2.48069 4.05843C2.51125 4.0993 2.53994 4.14168 2.56656 4.18518C2.59319 4.22868 2.61794 4.27349 2.64063 4.31924C2.66313 4.36499 2.68356 4.41168 2.70194 4.4593C2.72031 4.50712 2.73644 4.55549 2.75031 4.60462C2.76438 4.65374 2.776 4.70324 2.78538 4.75349C2.79475 4.80374 2.80188 4.85418 2.80675 4.90499C2.81163 4.9558 2.81406 5.0068 2.81425 5.0578H16.8813C17.0748 5.05968 17.2624 5.09418 17.4439 5.1613V4.49587C17.4439 4.44074 17.4411 4.38562 17.4357 4.33068C17.4303 4.27574 17.422 4.22118 17.4113 4.16718C17.4004 4.11299 17.3869 4.05955 17.3708 4.00668C17.3549 3.95399 17.3361 3.90205 17.3149 3.85105C17.2938 3.80005 17.2701 3.75037 17.2441 3.70162C17.218 3.65305 17.1897 3.60562 17.1589 3.55987C17.1282 3.51393 17.0954 3.46968 17.0603 3.42693C17.0253 3.38437 16.9881 3.34349 16.9489 3.30449C16.9099 3.26549 16.8691 3.22837 16.8263 3.19349C16.7836 3.15843 16.7393 3.12562 16.6934 3.09487C16.6474 3.06412 16.6 3.0358 16.5513 3.00974C16.5025 2.98387 16.4526 2.96024 16.4016 2.93905C16.3506 2.91787 16.2987 2.8993 16.2458 2.88318C16.1929 2.86724 16.1393 2.85374 16.0851 2.84287C16.0309 2.83218 15.9764 2.82393 15.9214 2.81849C15.8663 2.81305 15.8112 2.81024 15.7559 2.81024Z" fill="white"/>
</g>
<mask id="mask1_204_417" style="mask-type:luminance" maskUnits="userSpaceOnUse" x="13" y="9" width="5" height="3">
<path d="M13.4893 9.79199H17.444V11.52H13.4893V9.79199Z" fill="white"/>
</mask>
<g mask="url(#mask1_204_417)">
<path d="M13.5051 10.6766C13.5051 10.7042 13.5064 10.7317 13.5093 10.7591C13.5121 10.7867 13.516 10.8139 13.5214 10.8409C13.5269 10.8681 13.5336 10.8947 13.5417 10.9211C13.5498 10.9476 13.5589 10.9734 13.5696 10.9989C13.5801 11.0244 13.5919 11.0494 13.6051 11.0737C13.618 11.0981 13.6323 11.1217 13.6476 11.1446C13.663 11.1675 13.6795 11.1896 13.6969 11.211C13.7146 11.2324 13.7331 11.2528 13.7526 11.2723C13.7721 11.2918 13.7926 11.3104 13.8139 11.3278C13.8353 11.3452 13.8574 11.3617 13.8805 11.3771C13.9034 11.3925 13.927 11.4066 13.9514 11.4197C13.9758 11.4326 14.0007 11.4444 14.0262 11.4549C14.0519 11.4656 14.0778 11.4748 14.1042 11.4829C14.1306 11.4909 14.1574 11.4977 14.1844 11.5031C14.2116 11.5086 14.239 11.5125 14.2664 11.5153C14.2939 11.5179 14.3215 11.5194 14.3491 11.5194H17.4439V9.8338H14.3491C14.3215 9.8338 14.2939 9.83511 14.2664 9.83793C14.239 9.84074 14.2116 9.84468 14.1846 9.85011C14.1574 9.85555 14.1306 9.8623 14.1042 9.87036C14.0778 9.87843 14.0519 9.88761 14.0264 9.8983C14.0009 9.9088 13.9759 9.92061 13.9516 9.93374C13.9272 9.94668 13.9036 9.96093 13.8805 9.97611C13.8576 9.99149 13.8353 10.008 13.8139 10.0254C13.7928 10.0431 13.7721 10.0614 13.7526 10.0809C13.7331 10.1004 13.7146 10.1209 13.6971 10.1422C13.6795 10.1636 13.663 10.1857 13.6478 10.2086C13.6324 10.2315 13.6182 10.2553 13.6051 10.2795C13.5921 10.3039 13.5803 10.3288 13.5696 10.3543C13.5591 10.3798 13.5498 10.4057 13.5417 10.4321C13.5336 10.4586 13.5269 10.4852 13.5214 10.5122C13.516 10.5394 13.5121 10.5666 13.5093 10.5939C13.5064 10.6215 13.5051 10.6491 13.5051 10.6766Z" fill="white"/>
</g>
<mask id="mask2_204_417" style="mask-type:luminance" maskUnits="userSpaceOnUse" x="0" y="4" width="18" height="12">
<path d="M0.560059 4.46399H17.4441V15.1836H0.560059V4.46399Z" fill="white"/>
</mask>
<g mask="url(#mask2_204_417)">
<path d="M16.8813 6.18149H2.81435C2.77741 6.18149 2.74066 6.17962 2.7041 6.17605C2.66735 6.17249 2.63097 6.16705 2.59478 6.15974C2.5586 6.15262 2.52297 6.14362 2.48772 6.13293C2.45247 6.12224 2.41778 6.10987 2.38385 6.0958C2.34972 6.08174 2.31653 6.06599 2.28391 6.04855C2.25147 6.0313 2.21997 6.01237 2.18922 5.99193C2.15866 5.97149 2.12903 5.94955 2.10053 5.92612C2.07203 5.90287 2.04485 5.87812 2.01878 5.85224C1.99272 5.82618 1.96797 5.79899 1.94453 5.77049C1.92128 5.74199 1.89935 5.71255 1.87872 5.68199C1.85828 5.65143 1.83935 5.61993 1.82191 5.58749C1.80466 5.55505 1.78891 5.52168 1.77466 5.48774C1.7606 5.4538 1.74822 5.41912 1.73753 5.38405C1.72666 5.3488 1.71785 5.31318 1.71053 5.27699C1.70322 5.24099 1.69778 5.20462 1.69422 5.16805C1.69066 5.1313 1.68878 5.09474 1.6886 5.0578C1.68953 5.02049 1.68672 4.98318 1.68016 4.94624C1.67378 4.90949 1.66347 4.87349 1.64978 4.83862C1.6361 4.80374 1.61903 4.77055 1.5986 4.73905C1.57835 4.70774 1.5551 4.67849 1.52885 4.65168C1.5026 4.62487 1.47391 4.60087 1.44297 4.57987C1.41203 4.55868 1.37922 4.54087 1.34453 4.52643C1.31003 4.5118 1.27422 4.50074 1.23747 4.49343C1.20072 4.48593 1.1636 4.48218 1.1261 4.48218C1.0886 4.48218 1.05128 4.48593 1.01453 4.49343C0.977783 4.50074 0.942158 4.5118 0.907471 4.52643C0.872971 4.54087 0.840158 4.55868 0.809221 4.57987C0.778096 4.60087 0.749596 4.62487 0.723346 4.65168C0.697096 4.67849 0.673846 4.70774 0.653408 4.73905C0.632971 4.77055 0.615908 4.80374 0.602221 4.83862C0.588533 4.87349 0.578408 4.90949 0.571846 4.94624C0.565283 4.98318 0.562471 5.02049 0.563408 5.0578V12.9244C0.563408 12.9979 0.567158 13.0714 0.574471 13.1445C0.581783 13.2178 0.592658 13.2904 0.607096 13.3626C0.621533 13.4347 0.639533 13.506 0.660908 13.5765C0.682283 13.6468 0.707221 13.716 0.735533 13.7841C0.763658 13.8519 0.795158 13.9185 0.830033 13.9834C0.864721 14.0482 0.902596 14.1112 0.943471 14.1724C0.984533 14.2335 1.02841 14.2926 1.0751 14.3496C1.12197 14.4064 1.17128 14.4607 1.22341 14.5129C1.27553 14.565 1.3301 14.6143 1.3871 14.661C1.4441 14.7077 1.50316 14.7514 1.56447 14.7924C1.6256 14.8333 1.68878 14.871 1.75366 14.9059C1.81872 14.9406 1.88528 14.9721 1.95335 15.0002C2.02141 15.0283 2.0906 15.0532 2.1611 15.0746C2.23178 15.096 2.30303 15.114 2.37541 15.1284C2.4476 15.1427 2.52035 15.1536 2.59366 15.1609C2.66716 15.1682 2.74066 15.1719 2.81435 15.1719H15.756C15.8113 15.1719 15.8664 15.1691 15.9215 15.1637C15.9765 15.1582 16.031 15.15 16.0852 15.1393C16.1394 15.1284 16.193 15.1149 16.2459 15.099C16.2988 15.0829 16.3507 15.0643 16.4017 15.0431C16.4527 15.0219 16.5026 14.9983 16.5513 14.9724C16.6001 14.9464 16.6475 14.9179 16.6935 14.8873C16.7394 14.8566 16.7837 14.8237 16.8264 14.7887C16.8692 14.7536 16.91 14.7167 16.949 14.6777C16.9882 14.6387 17.0253 14.5978 17.0604 14.5551C17.0955 14.5125 17.1283 14.4682 17.159 14.4223C17.1898 14.3764 17.2181 14.3291 17.2442 14.2806C17.2702 14.2318 17.2938 14.1821 17.315 14.1311C17.3362 14.0801 17.355 14.0282 17.3709 13.9753C17.387 13.9226 17.4005 13.8692 17.4114 13.815C17.4221 13.7608 17.4303 13.7064 17.4358 13.6515C17.4412 13.5966 17.444 13.5414 17.444 13.4863V12.6435H14.3492C14.2852 12.6426 14.2215 12.6386 14.1579 12.6317C14.0943 12.6246 14.0312 12.6144 13.9685 12.6013C13.9059 12.5882 13.8442 12.5721 13.7831 12.5527C13.7222 12.5336 13.6622 12.5115 13.6033 12.4866C13.5444 12.4614 13.487 12.4337 13.4308 12.4031C13.3747 12.3724 13.3202 12.3392 13.2673 12.3032C13.2142 12.2674 13.1632 12.2289 13.1141 12.1881C13.065 12.1472 13.0179 12.1041 12.9729 12.0585C12.9281 12.0131 12.8853 11.9655 12.845 11.9158C12.8047 11.8663 12.767 11.8147 12.7318 11.7615C12.6963 11.7082 12.6639 11.6533 12.6339 11.5969C12.6039 11.5404 12.5769 11.4827 12.5525 11.4236C12.5283 11.3644 12.507 11.3044 12.4884 11.2431C12.47 11.1819 12.4547 11.1201 12.4423 11.0574C12.4299 10.9946 12.4205 10.9316 12.4143 10.8679C12.4082 10.8043 12.405 10.7406 12.405 10.6768C12.405 10.6129 12.4082 10.5491 12.4143 10.4856C12.4205 10.422 12.4299 10.3588 12.4423 10.2962C12.4547 10.2336 12.47 10.1715 12.4884 10.1104C12.507 10.0492 12.5283 9.98905 12.5525 9.92999C12.5769 9.87093 12.6039 9.81299 12.6339 9.75655C12.6639 9.70012 12.6963 9.64518 12.7318 9.59193C12.767 9.53868 12.8047 9.4873 12.845 9.43762C12.8853 9.38793 12.9281 9.34049 12.9729 9.29493C13.0179 9.24955 13.065 9.20643 13.1141 9.16555C13.1632 9.12468 13.2142 9.08624 13.2673 9.05024C13.3202 9.01443 13.3747 8.98105 13.4308 8.95049C13.487 8.91993 13.5444 8.89199 13.6033 8.86705C13.6622 8.84193 13.7222 8.8198 13.7831 8.80068C13.8442 8.78155 13.9059 8.76543 13.9685 8.75212C14.0312 8.73899 14.0943 8.72887 14.1579 8.72193C14.2215 8.7148 14.2852 8.71087 14.3492 8.71012H17.444V6.74362C17.444 6.70668 17.4405 6.67012 17.4333 6.63393C17.426 6.59774 17.4153 6.56249 17.4013 6.52855C17.3872 6.49443 17.3698 6.46199 17.3493 6.43124C17.3287 6.40068 17.3055 6.37218 17.2792 6.34612C17.2532 6.32005 17.2247 6.2968 17.1939 6.27618C17.1633 6.25574 17.1309 6.23849 17.0966 6.22424C17.0625 6.21018 17.0274 6.19949 16.991 6.19237C16.9548 6.18524 16.9183 6.18149 16.8813 6.18149Z" fill="white"/>
</g>
</g>
<defs>
<clipPath id="clip0_204_417">
<rect width="18" height="18" fill="white" transform="translate(0.0012207)"/>
</clipPath>
</defs>
</svg>
