<svg width="10" height="9" viewBox="0 0 10 9" fill="none" xmlns="http://www.w3.org/2000/svg">
<g filter="url(#filter0_d_897_20)">
<mask id="mask0_897_20" style="mask-type:luminance" maskUnits="userSpaceOnUse" x="2" y="0" width="6" height="4">
<path d="M2.47998 0.816467H7.52373V3.44147H2.47998V0.816467Z" fill="white"/>
</mask>
<g mask="url(#mask0_897_20)">
<mask id="mask1_897_20" style="mask-type:luminance" maskUnits="userSpaceOnUse" x="2" y="0" width="6" height="4">
<path d="M5.00092 0.816467L7.52186 3.44147H2.47998L5.00092 0.816467Z" fill="white"/>
</mask>
<g mask="url(#mask1_897_20)">
<path d="M2.47998 0.816467H7.52373V3.44147H2.47998V0.816467Z" fill="#7474EF"/>
</g>
</g>
<mask id="mask2_897_20" style="mask-type:luminance" maskUnits="userSpaceOnUse" x="2" y="4" width="6" height="4">
<path d="M2.47803 4.55853H7.52178V7.18353H2.47803V4.55853Z" fill="white"/>
</mask>
<g mask="url(#mask2_897_20)">
<mask id="mask3_897_20" style="mask-type:luminance" maskUnits="userSpaceOnUse" x="2" y="4" width="6" height="4">
<path d="M5.00092 7.18353L2.47998 4.55853H7.52175L5.00092 7.18353Z" fill="white"/>
</mask>
<g mask="url(#mask3_897_20)">
<path d="M7.52178 7.18353H2.47803V4.55853H7.52178V7.18353Z" fill="#475569"/>
</g>
</g>
</g>
<defs>
<filter id="filter0_d_897_20" x="-1.52002" y="0.816467" width="13.042" height="14.3671" filterUnits="userSpaceOnUse" color-interpolation-filters="sRGB">
<feFlood flood-opacity="0" result="BackgroundImageFix"/>
<feColorMatrix in="SourceAlpha" type="matrix" values="0 0 0 0 0 0 0 0 0 0 0 0 0 0 0 0 0 0 127 0" result="hardAlpha"/>
<feOffset dy="4"/>
<feGaussianBlur stdDeviation="2"/>
<feComposite in2="hardAlpha" operator="out"/>
<feColorMatrix type="matrix" values="0 0 0 0 0 0 0 0 0 0 0 0 0 0 0 0 0 0 0.25 0"/>
<feBlend mode="normal" in2="BackgroundImageFix" result="effect1_dropShadow_897_20"/>
<feBlend mode="normal" in="SourceGraphic" in2="effect1_dropShadow_897_20" result="shape"/>
</filter>
</defs>
</svg>
