<svg width="20" height="20" viewBox="0 0 20 20" fill="none" xmlns="http://www.w3.org/2000/svg">
<mask id="mask0_812_486" style="mask-type:luminance" maskUnits="userSpaceOnUse" x="2" y="12" width="4" height="5">
<path d="M2.78198 12.2133H5.28011V16.35H2.78198V12.2133Z" fill="white"/>
</mask>
<g mask="url(#mask0_812_486)">
<path d="M4.9819 12.2598H3.06065C2.9142 12.2598 2.79565 12.3781 2.79565 12.5241V16.0846C2.79565 16.2304 2.9144 16.3487 3.06065 16.3487H4.9819C5.12815 16.3487 5.2467 16.2304 5.2467 16.0846V12.5241C5.2469 12.3779 5.12815 12.2598 4.9819 12.2598Z" fill="#0ECC83"/>
</g>
<mask id="mask1_812_486" style="mask-type:luminance" maskUnits="userSpaceOnUse" x="5" y="10" width="4" height="7">
<path d="M5.70679 10.1334H8.21345V16.35H5.70679V10.1334Z" fill="white"/>
</mask>
<g mask="url(#mask1_812_486)">
<path d="M7.93698 10.1848H6.01573C5.86927 10.1848 5.75073 10.3034 5.75073 10.4492V16.0844C5.75073 16.2304 5.86948 16.3486 6.01573 16.3486H7.93698C8.08323 16.3486 8.20157 16.2302 8.20157 16.0844V10.4494C8.20157 10.3034 8.08323 10.1848 7.93698 10.1848Z" fill="#0ECC83"/>
</g>
<mask id="mask2_812_486" style="mask-type:luminance" maskUnits="userSpaceOnUse" x="8" y="7" width="4" height="10">
<path d="M8.74658 7.94666H11.1999V16.35H8.74658V7.94666Z" fill="white"/>
</mask>
<g mask="url(#mask2_812_486)">
<path d="M10.9338 7.95685H9.0128C8.86634 7.95685 8.7478 8.07539 8.7478 8.22122V16.0846C8.7478 16.2304 8.86655 16.3487 9.0128 16.3487H10.9338C11.0801 16.3487 11.1986 16.2304 11.1986 16.0846V8.22122C11.1986 8.07539 11.0801 7.95685 10.9338 7.95685Z" fill="#0ECC83"/>
</g>
<mask id="mask3_812_486" style="mask-type:luminance" maskUnits="userSpaceOnUse" x="11" y="5" width="4" height="12">
<path d="M11.7866 5.86664H14.24V16.35H11.7866V5.86664Z" fill="white"/>
</mask>
<g mask="url(#mask3_812_486)">
<path d="M13.9743 5.91266H12.0529C11.9066 5.91266 11.7881 6.03099 11.7881 6.17703V16.0843C11.7881 16.2304 11.9068 16.3485 12.0529 16.3485H13.9743C14.1206 16.3485 14.2391 16.2302 14.2391 16.0843V6.17724C14.2391 6.03099 14.1206 5.91266 13.9743 5.91266Z" fill="#0ECC83"/>
</g>
<mask id="mask4_812_486" style="mask-type:luminance" maskUnits="userSpaceOnUse" x="14" y="3" width="4" height="14">
<path d="M14.72 3.63H17.2218V16.35H14.72V3.63Z" fill="white"/>
</mask>
<g mask="url(#mask4_812_486)">
<path d="M16.9299 3.63123H15.0082C14.8619 3.63123 14.7434 3.74977 14.7434 3.8956V16.0846C14.7434 16.2304 14.8622 16.3487 15.0082 16.3487H16.9299C17.0761 16.3487 17.1947 16.2304 17.1947 16.0846V3.8956C17.1947 3.74956 17.0761 3.63123 16.9299 3.63123Z" fill="#0ECC83"/>
</g>
</svg>
