<svg width="8" height="8" viewBox="0 0 8 8" fill="none" xmlns="http://www.w3.org/2000/svg">
<path d="M4.11214 7.77314C6.14827 7.75654 7.78997 6.08785 7.77336 4.05171C7.75676 2.01547 6.08807 0.373879 4.05193 0.390483C2.01569 0.407088 0.374098 2.07567 0.390703 4.11192C0.407307 6.14805 2.07589 7.78975 4.11214 7.77314ZM4.42467 2.2928L4.42678 2.5524C4.4284 2.75002 4.27011 2.9109 4.0725 2.91251C3.87478 2.91413 3.714 2.75584 3.71239 2.55823L3.71027 2.29863C3.70866 2.10091 3.86684 1.94003 4.06456 1.93841C4.26217 1.9368 4.42306 2.09508 4.42467 2.2928ZM3.72087 3.59894C3.71928 3.40363 3.87744 3.24033 4.07516 3.23872C4.27277 3.23711 4.43368 3.39781 4.43527 3.59311L4.4538 5.865C4.45541 6.06272 4.29713 6.2235 4.09951 6.22511C3.90179 6.22672 3.74101 6.06854 3.7394 5.87082L3.72087 3.59894Z" fill="#7474EF"/>
</svg>
