<svg width="17" height="17" viewBox="0 0 17 17" fill="none" xmlns="http://www.w3.org/2000/svg">
<path d="M8.50436 0.81839C4.26477 0.81839 0.818359 4.2648 0.818359 8.50439C0.818359 12.7442 4.26477 16.1904 8.50436 16.1904C12.7442 16.1904 16.1904 12.7442 16.1904 8.50439C16.1904 4.2648 12.7442 0.81839 8.50436 0.81839ZM7.76061 12.2234V11.6828C7.76061 11.2714 8.09289 10.9391 8.50436 10.9391C8.91605 10.9391 9.24811 11.2714 9.24811 11.6828V12.2234C9.24811 12.635 8.91605 12.9673 8.50436 12.9673C8.09289 12.9673 7.76061 12.635 7.76061 12.2234ZM9.24811 9.51589C9.24811 9.92255 8.91605 10.2599 8.50436 10.2599C8.09289 10.2599 7.76061 9.92255 7.76061 9.51589V4.78542C7.76061 4.37373 8.09289 4.04167 8.50436 4.04167C8.91605 4.04167 9.24811 4.37373 9.24811 4.78542V9.51589Z" fill="#7474EF"/>
</svg>
