<svg width="61" height="18" viewBox="0 0 61 18" fill="none" xmlns="http://www.w3.org/2000/svg">
<path d="M8.28986 2.60358H4.27148V4.76104L6.186 7.98706H4.27148V15.509H6.28893V10.1255H8.28986C8.28986 10.1255 12.3076 10.1255 12.3076 6.36488C12.3076 2.60358 8.28986 2.60358 8.28986 2.60358ZM8.54847 7.96871L6.66828 4.76104H8.28986C8.28986 4.76104 10.3073 4.76104 10.3073 6.36488C10.3073 7.61819 9.08286 7.89467 8.54847 7.96871Z" fill="white"/>
<path d="M19.8086 2.43787C11.8589 2.43787 11.8417 15.6748 19.8086 15.6748C27.7417 15.6748 27.7239 2.43787 19.8086 2.43787ZM19.8086 13.5913C14.5835 13.5913 14.6007 4.53963 19.8086 4.53963C25.0342 4.53963 25.0342 13.5913 19.8086 13.5913Z" fill="white"/>
<path d="M30.0858 13.3522V2.60358H28.0684V15.509H34.5522V13.3522H30.0858Z" fill="white"/>
<path d="M46.4344 2.60358H43.9683L40.8986 7.21265L37.8118 2.60358H35.3457L39.8813 9.4068V15.509H41.8988V9.4068L46.4344 2.60358Z" fill="white"/>
<path d="M51.0725 9.05628L46.7612 15.509H49.2273L52.3141 10.8999L55.3838 15.509H57.8499L53.5386 9.05628L57.8499 2.60358H55.3838L52.3141 7.21265L49.2273 2.60358H46.7612L51.0725 9.05628Z" fill="white"/>
</svg>
