<svg width="16" height="16" viewBox="0 0 16 16" fill="none" xmlns="http://www.w3.org/2000/svg">
<mask id="mask0_812_563" style="mask-type:luminance" maskUnits="userSpaceOnUse" x="0" y="0" width="16" height="16">
<path d="M0.424316 0.423126H15.4945V15.5467H0.424316V0.423126Z" fill="white"/>
</mask>
<g mask="url(#mask0_812_563)">
<path fill-rule="evenodd" clip-rule="evenodd" d="M10.1687 11.5088L13.8818 15.2206C14.2493 15.5881 14.8464 15.5881 15.2141 15.2204C15.5816 14.8527 15.5814 14.2556 15.2139 13.8881L11.5033 10.1788C12.2498 9.16354 12.6908 7.90958 12.6908 6.55354C12.6908 3.17 9.94392 0.423126 6.56059 0.423126C3.17705 0.423126 0.430176 3.17 0.430176 6.55354C0.430176 9.93688 3.17705 12.6838 6.56059 12.6838C7.90893 12.6838 9.15601 12.2477 10.1687 11.5088ZM6.56059 2.30729C8.90413 2.30729 10.8068 4.21 10.8068 6.55354C10.8068 8.89708 8.90413 10.7998 6.56059 10.7998C4.21705 10.7998 2.31434 8.89708 2.31434 6.55354C2.31434 4.21 4.21705 2.30729 6.56059 2.30729Z" fill="#475569"/>
</g>
</svg>
