<svg width="12" height="12" viewBox="0 0 12 12" fill="none" xmlns="http://www.w3.org/2000/svg">
<path d="M1.65288 11.3295C1.68305 11.3295 1.71372 11.3178 1.73688 11.2946L6.00205 7.02681L10.2672 11.2946C10.2896 11.317 10.3197 11.3295 10.3512 11.3295C10.3827 11.3295 10.4131 11.317 10.4354 11.2946L11.2861 10.4435C11.3324 10.397 11.3324 10.3218 11.2861 10.2751L7.02088 6.00731L11.2861 1.73965C11.3324 1.69331 11.3324 1.61798 11.2861 1.57131L10.4354 0.720147C10.4131 0.697814 10.3827 0.685314 10.3512 0.685314C10.3197 0.685314 10.2896 0.697814 10.2672 0.720147L6.00205 4.98781L1.73688 0.720147C1.69055 0.673647 1.61538 0.673647 1.56872 0.720147L0.71805 1.57131C0.671717 1.61765 0.671717 1.69298 0.71805 1.73965L4.98322 6.00731L0.71805 10.2751C0.695717 10.2975 0.683217 10.3278 0.683217 10.3593C0.683217 10.3908 0.695717 10.4211 0.71805 10.4435L1.56872 11.2946C1.59188 11.3178 1.62255 11.3295 1.65288 11.3295ZM6.00205 6.73965C5.97172 6.73965 5.94122 6.75131 5.91788 6.77448L1.65288 11.0421L0.970217 10.3593L5.23538 6.09148C5.25772 6.06915 5.27022 6.03881 5.27022 6.00731C5.27022 5.97581 5.25772 5.94548 5.23538 5.92315L0.970217 1.65548L1.65288 0.972481L5.91788 5.24031C5.96438 5.28665 6.03972 5.28665 6.08622 5.24031L10.3512 0.972481L11.0339 1.65548L6.76872 5.92315C6.72238 5.96965 6.72238 6.04481 6.76872 6.09148L11.0339 10.3593L10.3512 11.0421L6.08622 6.77448C6.06288 6.75131 6.03238 6.73965 6.00205 6.73965Z" fill="#7474EF"/>
</svg>
