<?xml version="1.0" encoding="UTF-8"?> <!-- Generator: Adobe Illustrator 25.4.1, SVG Export Plug-In . SVG Version: 6.00 Build 0) --> <svg xmlns="http://www.w3.org/2000/svg" xmlns:xlink="http://www.w3.org/1999/xlink" version="1.1" id="Laag_1" x="0px" y="0px" viewBox="0 0 126 142" style="enable-background:new 0 0 126 142;" xml:space="preserve"> <style type="text/css"> .st0{fill-rule:evenodd;clip-rule:evenodd;fill:#888AF1;} .st1{fill-rule:evenodd;clip-rule:evenodd;fill:#A09DF6;} .st2{fill-rule:evenodd;clip-rule:evenodd;fill:#7074EF;} </style> <g> <path class="st0" d="M46.8,51.1h6.6L96.1,6.3c-6.1-2.9-13-4.5-20.2-4.5H3.1v18.3v7.4c0,13,10.5,23.5,23.5,23.5h18.5H46.8z"></path> <path class="st1" d="M53.4,51.1l55.8,33c8.7-8.4,14.2-20.1,14.6-33c0-0.5,0-0.9,0-1.4c0-19.1-11.4-35.8-27.7-43.4L53.4,51.1 L53.4,51.1z"></path> <path class="st2" d="M105.9,87L52.5,55.5l-5.7,3.4L3.1,84.7v12.9v1v34.2v8.1h18.5c13.9,0,25.2-11.3,25.2-25.2V97.6h29.1 C87.3,97.6,97.7,93.6,105.9,87L105.9,87z"></path> </g> </svg> 